<svg xmlns="http://www.w3.org/2000/svg" viewBox="0 0 64 64" role="img" aria-labelledby="title desc">
  <title id="title">MYP Atlas</title>
  <desc id="desc">Compass over an open book</desc>
  <rect width="64" height="64" rx="14" fill="#08263d"/>
  <path d="M8 43c8 0 16 2.2 24 7 8-4.8 16-7 24-7v8c-8 0-16 2.2-24 7-8-4.8-16-7-24-7z" fill="#fbf9f4"/>
  <path d="M9 34c8.7 0 16.4 2.5 23 7.3C38.6 36.5 46.3 34 55 34l-1.5 5.5c-8 .2-14.7 2.5-20.3 7L32 47l-1.2-.5c-5.6-4.5-12.3-6.8-20.3-7z" fill="#fbf9f4"/>
  <path d="M32 11 20 34l12-7 12 7z" fill="#fbf9f4"/>
  <path d="m29 23 7 6-10 5z" fill="#08263d"/>
</svg>
