<svg xmlns="http://www.w3.org/2000/svg" viewBox="0 0 648 484" role="img" aria-labelledby="title desc">
  <title id="title">MYP Atlas</title>
  <desc id="desc">Open book and compass logo</desc>
  <g fill="#08263d" fill-rule="evenodd">
    <path d="M 100 192 L 99 206 L 98 207 L 97 234 L 98 235 L 98 252 L 99 253 L 99 260 L 100 261 L 101 272 L 108 273 L 113 275 L 117 275 L 122 277 L 126 277 L 126 274 L 123 265 L 122 253 L 121 252 L 121 242 L 120 241 L 120 218 L 121 217 L 121 208 L 122 207 L 122 200 L 123 199 L 124 190 L 133 160 L 145 134 L 159 112 L 171 97 L 193 75 L 213 60 L 242 44 L 244 44 L 254 39 L 262 37 L 265 35 L 268 35 L 275 32 L 283 31 L 288 29 L 293 29 L 300 27 L 307 27 L 308 26 L 321 26 L 322 25 L 337 25 L 338 26 L 351 26 L 352 27 L 365 28 L 366 29 L 383 32 L 387 34 L 390 34 L 402 38 L 432 52 L 448 62 L 466 76 L 493 104 L 507 124 L 520 148 L 520 150 L 526 163 L 533 187 L 533 191 L 535 197 L 535 203 L 536 204 L 536 211 L 537 212 L 537 244 L 536 245 L 536 253 L 535 254 L 535 259 L 534 260 L 531 277 L 549 274 L 550 273 L 555 273 L 557 268 L 557 262 L 558 261 L 558 255 L 559 254 L 559 242 L 560 241 L 560 215 L 559 214 L 559 204 L 558 203 L 558 197 L 557 196 L 557 190 L 556 189 L 555 180 L 554 179 L 552 168 L 550 164 L 550 161 L 548 158 L 546 150 L 541 140 L 541 138 L 531 118 L 519 99 L 504 80 L 480 56 L 453 36 L 443 31 L 441 29 L 411 15 L 393 9 L 390 9 L 381 6 L 377 6 L 376 5 L 372 5 L 371 4 L 360 3 L 359 2 L 351 2 L 350 1 L 309 1 L 308 2 L 293 3 L 292 4 L 287 4 L 277 7 L 273 7 L 253 13 L 250 15 L 245 16 L 235 21 L 233 21 L 217 29 L 196 42 L 178 56 L 154 80 L 135 105 L 126 120 L 113 147 L 112 152 L 110 155 L 106 167 L 106 170 L 104 174 L 103 182 L 101 187 L 101 191 Z"/>
    <path d="M 421 109 L 301 189 L 295 202 L 295 204 L 283 228 L 283 230 L 275 245 L 275 247 L 266 264 L 266 266 L 258 281 L 258 283 L 242 316 L 262 304 L 297 280 L 300 279 L 320 265 L 323 264 L 361 239 Z M 314 201 L 345 229 L 346 231 L 343 234 L 277 277 L 276 275 L 279 270 L 279 268 L 311 204 Z"/>
    <path d="M 47 299 L 45 310 L 43 314 L 43 317 L 37 338 L 64 338 L 65 339 L 76 339 L 77 340 L 86 340 L 87 341 L 102 342 L 103 343 L 120 345 L 125 347 L 138 349 L 139 350 L 150 352 L 154 354 L 157 354 L 161 356 L 168 357 L 189 364 L 192 366 L 203 369 L 208 372 L 210 372 L 236 384 L 238 384 L 274 403 L 306 424 L 296 412 L 285 401 L 268 386 L 246 369 L 213 348 L 180 331 L 178 331 L 171 327 L 169 327 L 164 324 L 149 319 L 146 317 L 106 305 L 102 305 L 97 303 L 92 303 L 91 302 L 87 302 L 81 300 L 75 300 L 74 299 L 68 299 L 67 298 L 59 298 L 58 297 L 48 297 Z"/>
    <path d="M 605 298 L 604 297 L 596 297 L 595 298 L 573 300 L 572 301 L 567 301 L 566 302 L 547 305 L 546 306 L 527 310 L 489 323 L 484 326 L 482 326 L 477 329 L 468 332 L 455 339 L 453 339 L 417 359 L 387 380 L 370 394 L 341 424 L 375 401 L 390 392 L 397 389 L 399 387 L 435 370 L 477 355 L 480 355 L 487 352 L 490 352 L 499 349 L 503 349 L 508 347 L 513 347 L 518 345 L 523 345 L 524 344 L 529 344 L 536 342 L 550 341 L 551 340 L 571 339 L 572 338 L 612 338 Z"/>
    <path d="M 1 372 L 1 433 L 10 432 L 16 430 L 29 429 L 30 428 L 38 428 L 39 427 L 47 427 L 48 426 L 58 426 L 59 425 L 75 425 L 76 424 L 121 424 L 122 425 L 133 425 L 134 426 L 160 428 L 161 429 L 166 429 L 167 430 L 172 430 L 173 431 L 178 431 L 179 432 L 184 432 L 185 433 L 204 436 L 253 450 L 256 452 L 267 455 L 284 463 L 286 463 L 298 470 L 309 479 L 319 483 L 330 483 L 344 476 L 354 467 L 387 453 L 414 444 L 428 441 L 432 439 L 444 437 L 458 433 L 474 431 L 475 430 L 496 428 L 497 427 L 504 427 L 505 426 L 529 425 L 530 424 L 576 424 L 577 425 L 590 425 L 591 426 L 601 426 L 602 427 L 619 428 L 625 430 L 632 430 L 633 431 L 646 433 L 646 371 L 642 371 L 641 370 L 615 369 L 614 368 L 584 368 L 583 369 L 555 370 L 554 371 L 537 372 L 536 373 L 530 373 L 529 374 L 524 374 L 518 376 L 507 377 L 502 379 L 493 380 L 492 381 L 477 384 L 473 386 L 466 387 L 436 397 L 433 399 L 428 400 L 413 407 L 411 407 L 404 411 L 402 411 L 351 439 L 345 443 L 335 453 L 333 453 L 330 455 L 318 455 L 310 451 L 303 443 L 280 429 L 247 412 L 238 409 L 231 405 L 216 400 L 208 396 L 181 387 L 167 384 L 163 382 L 151 380 L 146 378 L 142 378 L 141 377 L 137 377 L 136 376 L 132 376 L 131 375 L 120 374 L 119 373 L 96 371 L 95 370 L 84 370 L 83 369 L 38 368 L 37 369 L 10 370 L 9 371 L 3 371 Z"/>
  </g>
</svg>
